<svg xmlns="http://www.w3.org/2000/svg" viewBox="0 0 100 1800" preserveAspectRatio="none" role="img" aria-label="A winding path threading the ten weeks of the journey">
  <path d="M 50 0
           C 50 45, 32 45, 32 90
           C 32 180, 68 180, 68 270
           C 68 360, 32 360, 32 450
           C 32 540, 68 540, 68 630
           C 68 720, 32 720, 32 810
           C 32 900, 68 900, 68 990
           C 68 1080, 32 1080, 32 1170
           C 32 1260, 68 1260, 68 1350
           C 68 1440, 32 1440, 32 1530
           C 32 1620, 68 1620, 68 1710
           C 68 1755, 50 1755, 50 1800"
        fill="none" stroke="#C2714F" stroke-width="2"
        stroke-dasharray="2 7" stroke-linecap="round"/>
</svg>
